<svg width="31" height="31" viewBox="0 0 31 31" fill="none" xmlns="http://www.w3.org/2000/svg">
<path d="M26.7044 13.7782H4.29506C3.06447 13.7782 2.06641 14.5495 2.06641 15.5004C2.06641 16.4514 3.06447 17.2227 4.29506 17.2227H26.7044C27.935 17.2227 28.9331 16.4514 28.9331 15.5004C28.9331 14.5495 27.935 13.7782 26.7044 13.7782Z" fill="#484848"/>
<path d="M18.8499 6.19999C18.2577 6.19999 17.6628 6.40794 17.2118 6.82635C16.3072 7.66068 16.3072 9.01363 17.2118 9.84795L23.3405 15.5003L17.2118 21.1526C16.3072 21.987 16.3072 23.3399 17.2118 24.1742C18.1164 25.0086 19.5834 25.0086 20.488 24.1742L28.2549 17.0111C29.1595 16.1768 29.1595 14.8238 28.2549 13.9895L20.488 6.82635C20.0371 6.40794 19.4421 6.19999 18.8499 6.19999Z" fill="#484848"/>
</svg>
