<svg width="24" height="24" viewBox="0 0 24 24" fill="none" xmlns="http://www.w3.org/2000/svg">
<path d="M12.0016 0C8.74274 0 8.33374 0.0146725 7.05276 0.0717284C6.05752 0.0916964 5.07288 0.279655 4.1407 0.627615C3.34341 0.93475 2.61929 1.40443 2.01472 2.00656C1.41015 2.6087 0.938461 3.33002 0.629857 4.12433C0.279888 5.05298 0.0912322 6.03424 0.0719847 7.02602C0.0147249 8.30082 0 8.70999 0 11.9573C0 15.2046 0.0147249 15.6105 0.0719847 16.8869C0.0922758 17.8786 0.280898 18.8597 0.629857 19.7886C0.938266 20.583 1.40968 21.3044 2.01395 21.9068C2.61821 22.5092 3.34202 22.9793 4.13906 23.287C5.0718 23.6349 6.05699 23.8229 7.05276 23.8428C8.33211 23.9015 8.7411 23.9146 12 23.9146C15.2589 23.9146 15.6679 23.8999 16.9472 23.8428C17.943 23.8228 18.9282 23.6348 19.8609 23.287C20.6577 22.9788 21.3813 22.5086 21.9855 21.9063C22.5897 21.3039 23.0613 20.5827 23.3701 19.7886C23.7177 18.8593 23.9063 17.8784 23.928 16.8869C23.9853 15.6121 24 15.2046 24 11.9573C24 8.70999 23.9853 8.30245 23.928 7.02602C23.9064 6.0345 23.7178 5.05363 23.3701 4.12433C23.0615 3.33007 22.5897 2.6088 21.9852 2.00667C21.3806 1.40455 20.6565 0.934838 19.8593 0.627615C18.9259 0.279809 17.9403 0.0918621 16.944 0.0717284C15.6646 0.0130424 15.2556 0 11.9967 0H12.0016ZM10.9252 2.15508H12.0016C15.2065 2.15508 15.5861 2.16649 16.8507 2.22355C17.6117 2.23285 18.3654 2.37236 19.0789 2.63598C19.5963 2.83508 20.0662 3.13981 20.4584 3.53061C20.8506 3.9214 21.1564 4.38962 21.3562 4.90518C21.6211 5.61612 21.7611 6.36718 21.7701 7.12546C21.8274 8.38558 21.8405 8.76541 21.8405 11.9557C21.8405 15.1459 21.8274 15.5257 21.7701 16.7858C21.7609 17.5441 21.6209 18.2952 21.3562 19.0061C21.1561 19.5213 20.8501 19.9891 20.4579 20.3796C20.0658 20.7701 19.5961 21.0746 19.0789 21.2737C18.3652 21.5361 17.6114 21.674 16.8507 21.6812C15.5861 21.7383 15.2049 21.7513 12.0016 21.7513C8.79836 21.7513 8.41718 21.7383 7.15256 21.6812C6.39162 21.6717 5.63796 21.5322 4.92434 21.2688C4.40658 21.07 3.93633 20.7654 3.54384 20.3745C3.15134 19.9837 2.8453 19.5154 2.6454 18.9996C2.38058 18.2887 2.24057 17.5376 2.23149 16.7793C2.17423 15.5192 2.16278 15.1394 2.16278 11.9475C2.16278 8.75563 2.17423 8.37743 2.23149 7.11731C2.24083 6.35906 2.38083 5.60804 2.6454 4.89702C2.8452 4.38101 3.15119 3.91238 3.54368 3.52128C3.93617 3.13019 4.40647 2.82529 4.92434 2.6262C5.63781 2.36229 6.39156 2.22278 7.15256 2.21377C8.26012 2.16323 8.68875 2.14856 10.9252 2.14693V2.15508ZM18.4082 4.14063C18.1234 4.14063 17.8451 4.22476 17.6083 4.38239C17.3716 4.54002 17.1871 4.76407 17.0781 5.0262C16.9691 5.28833 16.9406 5.57677 16.9962 5.85504C17.0517 6.13332 17.1888 6.38893 17.3902 6.58955C17.5915 6.79018 17.848 6.92681 18.1273 6.98216C18.4066 7.03751 18.6961 7.0091 18.9591 6.90052C19.2222 6.79195 19.447 6.60808 19.6052 6.37217C19.7634 6.13626 19.8479 5.8589 19.8479 5.57517C19.8479 5.19471 19.6962 4.82983 19.4262 4.5608C19.1562 4.29177 18.79 4.14063 18.4082 4.14063ZM12.0016 5.81807C10.7825 5.8171 9.59055 6.17643 8.57644 6.85061C7.56233 7.52479 6.77167 8.48352 6.30447 9.60552C5.83727 10.7275 5.71453 11.9624 5.95176 13.1539C6.189 14.3455 6.77556 15.4401 7.63725 16.2994C8.49893 17.1587 9.59702 17.7441 10.7926 17.9814C11.9882 18.2187 13.2276 18.0974 14.354 17.6328C15.4804 17.1681 16.4432 16.3811 17.1206 15.3711C17.7979 14.3611 18.1595 13.1737 18.1595 11.9589C18.1595 10.3303 17.5102 8.76831 16.3545 7.61668C15.1987 6.46505 13.6312 5.81807 11.9967 5.81807H12.0016ZM12.0016 7.97315C12.7928 7.97315 13.5661 8.20691 14.2239 8.64487C14.8817 9.08283 15.3944 9.70533 15.6972 10.4336C15.9999 11.1619 16.0791 11.9633 15.9248 12.7365C15.7704 13.5097 15.3895 14.2199 14.8301 14.7773C14.2707 15.3347 13.5579 15.7143 12.782 15.8681C12.0061 16.0219 11.2018 15.9429 10.4709 15.6413C9.74 15.3396 9.11528 14.8287 8.67576 14.1733C8.23623 13.5178 8.00164 12.7472 8.00164 11.9589C8.00142 11.4354 8.10473 10.9169 8.30565 10.4331C8.50657 9.94936 8.80117 9.50979 9.17263 9.1395C9.54408 8.76922 9.98512 8.47548 10.4705 8.27508C10.9559 8.07467 11.4762 7.97315 12.0016 7.97315Z" fill="black"/>
</svg>
