<svg width="18" height="18" viewBox="0 0 18 18" fill="none" xmlns="http://www.w3.org/2000/svg">
<path d="M17.648 17.6478C17.8732 17.4226 18 17.1173 18 16.7988C18 16.4804 17.8732 16.1749 17.648 15.9499L14.0992 12.3981C15.6577 10.2632 16.0289 7.48442 15.0854 5.01551C14.1419 2.54638 12.012 0.72322 9.42709 0.171854C6.84204 -0.379729 4.15366 0.415418 2.28444 2.28444C0.415209 4.15346 -0.379674 6.84183 0.171854 9.42709C0.723221 12.0119 2.54638 14.1419 5.01551 15.0854C7.48442 16.0289 10.2632 15.6577 12.3981 14.0992L15.9499 17.648C16.1749 17.8732 16.4804 18 16.7988 18C17.1173 18 17.4226 17.8732 17.6478 17.648L17.648 17.6478ZM2.40014 7.79945C2.40014 6.36738 2.96908 4.99387 3.98161 3.98134C4.99413 2.96881 6.36765 2.39988 7.79972 2.39988C9.23157 2.39988 10.6051 2.96881 11.6176 3.98134C12.6304 4.99387 13.1991 6.36738 13.1991 7.79945C13.1991 9.2313 12.6304 10.6048 11.6176 11.6173C10.6051 12.6301 9.23157 13.1988 7.79972 13.1988C6.36765 13.1988 4.99413 12.6301 3.98161 11.6173C2.96908 10.6048 2.40014 9.2313 2.40014 7.79945Z" fill="black"/>
</svg>
