<svg width="24" height="19" viewBox="0 0 24 19" fill="none" xmlns="http://www.w3.org/2000/svg">
<path d="M0 16.846C2.14059 18.1947 4.61693 18.9386 7.15831 18.9964C9.6997 19.0541 12.2083 18.4234 14.4099 17.1733C16.6115 15.9232 18.4214 14.1017 19.6417 11.908C20.8619 9.71433 21.4456 7.23283 21.329 4.73482C22.2834 4.0554 23.1065 3.21334 23.7592 2.24852C22.8698 2.63687 21.926 2.89123 20.9596 3.00301C21.9763 2.40369 22.7365 1.46076 23.0982 0.350339C22.1414 0.909157 21.0946 1.30306 20.003 1.51506C19.2684 0.744975 18.2961 0.234781 17.2368 0.0635285C16.1775 -0.107724 15.0904 0.0695204 14.1439 0.56784C13.1975 1.06616 12.4445 1.85769 12.0018 2.81974C11.5592 3.7818 11.4514 4.86064 11.6954 5.88903C9.75691 5.79386 7.86047 5.29843 6.12938 4.43496C4.3983 3.5715 2.87132 2.35932 1.64773 0.877237C1.0232 1.93352 0.831573 3.1843 1.11189 4.37473C1.39221 5.56516 2.12338 6.60567 3.15642 7.28424C2.38208 7.26008 1.62484 7.05416 0.947809 6.68369C0.933974 7.80119 1.31694 8.88845 2.03067 9.75797C2.74441 10.6275 3.74417 11.2248 4.8576 11.4469C4.13997 11.6393 3.38704 11.6671 2.65677 11.5281C2.96757 12.4813 3.57369 13.3148 4.39021 13.9121C5.20673 14.5094 6.19276 14.8404 7.21011 14.8588C5.16887 16.4339 2.57601 17.1485 0 16.846Z" fill="black"/>
</svg>
