<svg width="70" height="71" viewBox="0 0 70 71" fill="none" xmlns="http://www.w3.org/2000/svg">
<path fill-rule="evenodd" clip-rule="evenodd" d="M35.0599 70.0393C25.3031 70.0393 16.6683 66.1197 10.2373 59.8722C3.94653 53.6247 -0.000234299 44.9101 -0.000233458 35.3598C-0.000232617 25.8095 3.94653 17.0949 10.2373 10.728C16.6683 4.48056 25.3031 0.541065 35.0599 0.541066C44.8166 0.541067 53.4514 4.46067 59.7422 10.728C66.053 17.075 69.9998 25.6504 69.9998 35.3399C69.9998 45.0295 66.053 53.6049 59.7622 59.8722C53.4514 66.1197 44.6964 70.0393 35.0599 70.0393ZM39.1268 49.924L24.6821 35.5787C24.5619 35.4593 24.5619 35.2205 24.6821 34.9619L39.1268 20.6166C39.247 20.4972 39.5075 20.4972 39.7479 20.6166L42.8332 23.8L31.5939 34.9619C31.4737 35.2007 31.4737 35.4593 31.5939 35.5787L42.8332 46.7406L39.7479 49.924C39.5075 50.0434 39.247 50.0434 39.1268 49.924Z" fill="#E6E6E6"/>
</svg>
