<svg width="37" height="32" viewBox="0 0 37 32" fill="none" xmlns="http://www.w3.org/2000/svg">
<path fill-rule="evenodd" clip-rule="evenodd" d="M12.5201 28.8827C22.3505 23.3742 23.241 19.615 24.8897 15.9097C26.8138 11.5903 25.4268 10.4349 33.9217 0.994152C37.8789 5.48229 40.3203 18.6686 12.5201 28.8827ZM0.194015 31.2628C9.09516 29.1221 12.2266 24.551 9.08078 20.0455C10.5229 19.1262 15.4728 21.9796 14.0411 25.1386C16.1228 21.7724 15.0599 19.9101 14.8138 16.9621C14.565 13.971 15.0801 9.79085 19.928 1.13793C19.5661 2.01775 22.8017 5.34815 23.516 10.6413C24.9201 21.1366 10.7987 32.119 0.194015 31.2628Z" fill="#FAA61A"/>
</svg>
