<svg width="36" height="46" viewBox="0 0 36 46" fill="none" xmlns="http://www.w3.org/2000/svg">
<path d="M18 0.25C13.2609 0.255376 8.71745 2.14036 5.3664 5.4914C2.01536 8.84245 0.130376 13.3859 0.125 18.125C0.125 33.4203 16.375 44.972 17.0677 45.4555C17.3409 45.6469 17.6664 45.7495 18 45.7495C18.3336 45.7495 18.6591 45.6469 18.9323 45.4555C19.625 44.972 35.875 33.4203 35.875 18.125C35.8696 13.3859 33.9846 8.84245 30.6336 5.4914C27.2825 2.14036 22.7391 0.255376 18 0.25ZM18 11.625C19.2856 11.625 20.5423 12.0062 21.6112 12.7204C22.6801 13.4347 23.5132 14.4498 24.0052 15.6376C24.4972 16.8253 24.6259 18.1322 24.3751 19.3931C24.1243 20.654 23.5052 21.8122 22.5962 22.7212C21.6872 23.6302 20.529 24.2493 19.2681 24.5001C18.0072 24.7509 16.7003 24.6222 15.5126 24.1302C14.3248 23.6382 13.3097 22.8051 12.5954 21.7362C11.8812 20.6673 11.5 19.4106 11.5 18.125C11.5 16.4011 12.1848 14.7478 13.4038 13.5288C14.6228 12.3098 16.2761 11.625 18 11.625Z" fill="#07562A"/>
</svg>
