<svg width="70" height="71" viewBox="0 0 70 71" fill="none" xmlns="http://www.w3.org/2000/svg">
<path fill-rule="evenodd" clip-rule="evenodd" d="M34.9397 0.54126C44.6964 0.54126 53.3312 4.46086 59.7623 10.7083C66.053 16.9558 69.9998 25.6705 69.9998 35.2208C69.9998 44.771 66.053 53.4857 59.7623 59.8525C53.3312 66.1 44.6964 70.0395 34.9397 70.0395C25.183 70.0395 16.5482 66.1199 10.2574 59.8525C3.94655 53.5056 -0.000213623 44.9302 -0.000213623 35.2406C-0.000213623 25.5511 3.94655 16.9757 10.2373 10.7083C16.5482 4.46086 25.3032 0.54126 34.9397 0.54126ZM30.8727 20.6566L45.3175 35.0019C45.4377 35.1213 45.4377 35.36 45.3175 35.6187L30.8727 49.964C30.7525 50.0834 30.4921 50.0834 30.2517 49.964L27.1664 46.7806L38.4056 35.6187C38.5258 35.3799 38.5258 35.1213 38.4056 35.0019L27.1664 23.84L30.2517 20.6566C30.4921 20.5372 30.7525 20.5372 30.8727 20.6566Z" fill="#E6E6E6"/>
</svg>
